<?xml version="1.0" encoding="UTF-8"?>
<svg width="800" height="600" viewBox="0 0 800 600" version="1.1" xmlns="http://www.w3.org/2000/svg">
  <g fill="none" stroke="#339933" stroke-width="2">
    <!-- Simplified Sydney coastline -->
    <path d="M400,100 C450,120 500,150 520,200 C540,250 550,300 540,350 C530,400 500,450 450,480 C400,510 350,520 300,510 C250,500 200,470 170,420 C140,370 130,320 140,270 C150,220 180,170 220,140 C260,110 310,95 360,90 C380,88 390,90 400,100 Z" fill="#e5e7eb"/>
    
    <!-- Major roads -->
    <path d="M250,250 L550,250" stroke-width="1.5"/>
    <path d="M400,100 L400,500" stroke-width="1.5"/>
    <path d="M200,200 L600,400" stroke-width="1.5"/>
    <path d="M200,400 L600,200" stroke-width="1.5"/>
    
    <!-- City center marker -->
    <circle cx="400" cy="300" r="8" fill="#339933"/>
    
    <!-- Area markers -->
    <circle cx="400" cy="150" r="4" fill="#339933"/>
    <circle cx="500" cy="300" r="4" fill="#339933"/>
    <circle cx="400" cy="450" r="4" fill="#339933"/>
    <circle cx="300" cy="300" r="4" fill="#339933"/>
    <circle cx="350" cy="200" r="4" fill="#339933"/>
    <circle cx="450" cy="200" r="4" fill="#339933"/>
    <circle cx="350" cy="400" r="4" fill="#339933"/>
    <circle cx="450" cy="400" r="4" fill="#339933"/>
  </g>
  
  <!-- Compass rose -->
  <g transform="translate(700,100)">
    <circle cx="0" cy="0" r="20" fill="none" stroke="#339933" stroke-width="1"/>
    <path d="M0,-20 L0,20 M-20,0 L20,0" stroke="#339933" stroke-width="1"/>
    <text x="0" y="-25" fill="#339933" text-anchor="middle" font-size="12">N</text>
  </g>
</svg>